RBDS022runT45_grf
version=1
nRows=30
nColumns=19
inDegrees=no
endheader
time	ground_force_r_vx	ground_force_r_vy	ground_force_r_vz	ground_force_r_px	ground_force_r_py	ground_force_r_pz	ground_force_r_mx	ground_force_r_my	ground_force_r_mz	ground_force_l_vx	ground_force_l_vy	ground_force_l_vz	ground_force_l_px	ground_force_l_py	ground_force_l_pz	ground_force_l_mx	ground_force_l_my	ground_force_l_mz
      7.49900000	      0.00000000	      0.00000000	      0.00000000	      0.00000000	      0.00000000	      0.00000000	      0.00000000	      0.00000000	      0.00000000	    244.79747364	    957.78660978	    -36.17052799	      1.92016342	      0.00000000	      0.98015349	     -0.00000000	      3.44893612	      0.00000000
      7.50000000	      0.00000000	      0.00000000	      0.00000000	      0.00000000	      0.00000000	      0.00000000	      0.00000000	      0.00000000	      0.00000000	    245.51405405	    932.05630335	    -36.23701430	      1.91636046	      0.00000000	      0.98020517	     -0.00000000	      3.30435316	      0.00000000
      7.50100000	      0.00000000	      0.00000000	      0.00000000	      0.00000000	      0.00000000	      0.00000000	      0.00000000	      0.00000000	      0.00000000	    245.15016283	    906.28093627	    -36.07329562	      1.91276182	      0.00000000	      0.98022971	     -0.00000000	      3.12427454	      0.00000000
      7.50200000	      0.00000000	      0.00000000	      0.00000000	      0.00000000	      0.00000000	      0.00000000	      0.00000000	      0.00000000	      0.00000000	    244.78627162	    880.50556918	    -35.90957693	      1.90916319	      0.00000000	      0.98025424	     -0.00000000	      2.94419591	      0.00000000
      7.50300000	      0.00000000	      0.00000000	      0.00000000	      0.00000000	      0.00000000	      0.00000000	      0.00000000	      0.00000000	      0.00000000	    244.42238040	    854.73020209	    -35.74585825	      1.90556455	      0.00000000	      0.98027878	     -0.00000000	      2.76411729	      0.00000000
      7.50400000	      0.00000000	      0.00000000	      0.00000000	      0.00000000	      0.00000000	      0.00000000	      0.00000000	      0.00000000	      0.00000000	    243.37444384	    829.09517332	    -35.43446059	      1.90211796	      0.00000000	      0.98028390	     -0.00000000	      2.56214170	      0.00000000
      7.50500000	      0.00000000	      0.00000000	      0.00000000	      0.00000000	      0.00000000	      0.00000000	      0.00000000	      0.00000000	      0.00000000	    241.98448460	    803.53031371	    -35.04922345	      1.89874739	      0.00000000	      0.98027930	     -0.00000000	      2.34921762	      0.00000000
      7.50600000	      0.00000000	      0.00000000	      0.00000000	      0.00000000	      0.00000000	      0.00000000	      0.00000000	      0.00000000	      0.00000000	    240.59452536	    777.96545409	    -34.66398631	      1.89537681	      0.00000000	      0.98027471	     -0.00000000	      2.13629354	      0.00000000
      7.50700000	      0.00000000	      0.00000000	      0.00000000	      0.00000000	      0.00000000	      0.00000000	      0.00000000	      0.00000000	      0.00000000	    238.88841656	    752.55380443	    -34.20980190	      1.89208906	      0.00000000	      0.98026004	     -0.00000000	      1.91350501	      0.00000000
      7.50800000	      0.00000000	      0.00000000	      0.00000000	      0.00000000	      0.00000000	      0.00000000	      0.00000000	      0.00000000	      0.00000000	    236.55000861	    727.44857466	    -33.61772293	      1.88896694	      0.00000000	      0.98022522	     -0.00000000	      1.67098761	      0.00000000
      7.50900000	      0.00000000	      0.00000000	      0.00000000	      0.00000000	      0.00000000	      0.00000000	      0.00000000	      0.00000000	      0.00000000	    234.21160066	    702.34334490	    -33.02564396	      1.88584482	      0.00000000	      0.98019040	     -0.00000000	      1.42847020	      0.00000000
      7.51000000	      0.00000000	      0.00000000	      0.00000000	      0.00000000	      0.00000000	      0.00000000	      0.00000000	      0.00000000	      0.00000000	    231.87319271	    677.23811514	    -32.43356499	      1.88272270	      0.00000000	      0.98015557	     -0.00000000	      1.18595279	      0.00000000
      7.51100000	      0.00000000	      0.00000000	      0.00000000	      0.00000000	      0.00000000	      0.00000000	      0.00000000	      0.00000000	      0.00000000	    228.68456434	    652.82944116	    -31.65467546	      1.87986528	      0.00000000	      0.98009038	     -0.00000000	      0.91764007	      0.00000000
      7.51200000	      0.00000000	      0.00000000	      0.00000000	      0.00000000	      0.00000000	      0.00000000	      0.00000000	      0.00000000	      0.00000000	    225.49593597	    628.42076719	    -30.87578592	      1.87700787	      0.00000000	      0.98002518	     -0.00000000	      0.64932735	      0.00000000
      7.51300000	      0.00000000	      0.00000000	      0.00000000	      0.00000000	      0.00000000	      0.00000000	      0.00000000	      0.00000000	      0.00000000	    222.30730759	    604.01209321	    -30.09689638	      1.87415046	      0.00000000	      0.97995999	     -0.00000000	      0.38101463	      0.00000000
      7.51400000	      0.00000000	      0.00000000	      0.00000000	      0.00000000	      0.00000000	      0.00000000	      0.00000000	      0.00000000	      0.00000000	    218.62892011	    580.21401067	    -29.20984797	      1.87147716	      0.00000000	      0.97987510	     -0.00000000	      0.09835822	      0.00000000
      7.51500000	      0.00000000	      0.00000000	      0.00000000	      0.00000000	      0.00000000	      0.00000000	      0.00000000	      0.00000000	      0.00000000	    214.70565306	    556.72122384	    -28.26872013	      1.86889592	      0.00000000	      0.97978037	     -0.00000000	     -0.19147004	      0.00000000
      7.51600000	      0.00000000	      0.00000000	      0.00000000	      0.00000000	      0.00000000	      0.00000000	      0.00000000	      0.00000000	      0.00000000	    210.78238601	    533.22843702	    -27.32759229	      1.86631469	      0.00000000	      0.97968563	     -0.00000000	     -0.48129830	      0.00000000
      7.51700000	      0.00000000	      0.00000000	      0.00000000	      0.00000000	      0.00000000	      0.00000000	      0.00000000	      0.00000000	      0.00000000	    206.65728833	    510.10658137	    -26.34177227	      1.86382756	      0.00000000	      0.97958166	     -0.00000000	     -0.77673554	      0.00000000
      7.51800000	      0.00000000	      0.00000000	      0.00000000	      0.00000000	      0.00000000	      0.00000000	      0.00000000	      0.00000000	      0.00000000	    202.12852938	    487.72658807	    -25.26656789	      1.86152865	      0.00000000	      0.97945920	     -0.00000000	     -1.08339076	      0.00000000
      7.51900000	      0.00000000	      0.00000000	      0.00000000	      0.00000000	      0.00000000	      0.00000000	      0.00000000	      0.00000000	      0.00000000	    197.59977043	    465.34659478	    -24.19136351	      1.85922975	      0.00000000	      0.97933674	     -0.00000000	     -1.39004597	      0.00000000
      7.52000000	      0.00000000	      0.00000000	      0.00000000	      0.00000000	      0.00000000	      0.00000000	      0.00000000	      0.00000000	      0.00000000	    193.07101148	    442.96660149	    -23.11615913	      1.85693084	      0.00000000	      0.97921428	     -0.00000000	     -1.69670119	      0.00000000
      7.52100000	      0.00000000	      0.00000000	      0.00000000	      0.00000000	      0.00000000	      0.00000000	      0.00000000	      0.00000000	      0.00000000	    188.07528725	    421.86980488	    -21.93758429	      1.85491481	      0.00000000	      0.97906683	     -0.00000000	     -2.01516847	      0.00000000
      7.52200000	      0.00000000	      0.00000000	      0.00000000	      0.00000000	      0.00000000	      0.00000000	      0.00000000	      0.00000000	      0.00000000	    183.07956302	    400.77300827	    -20.75900946	      1.85289879	      0.00000000	      0.97891939	     -0.00000000	     -2.33363575	      0.00000000
      7.52300000	      0.00000000	      0.00000000	      0.00000000	      0.00000000	      0.00000000	      0.00000000	      0.00000000	      0.00000000	      0.00000000	    178.08383879	    379.67621166	    -19.58043462	      1.85088276	      0.00000000	      0.97877195	     -0.00000000	     -2.65210302	      0.00000000
      7.52400000	      0.00000000	      0.00000000	      0.00000000	      0.00000000	      0.00000000	      0.00000000	      0.00000000	      0.00000000	      0.00000000	    172.87245343	    359.52869110	    -18.35438318	      1.84905188	      0.00000000	      0.97861024	     -0.00000000	     -2.97494610	      0.00000000
      7.52500000	      0.00000000	      0.00000000	      0.00000000	      0.00000000	      0.00000000	      0.00000000	      0.00000000	      0.00000000	      0.00000000	    167.55323750	    339.85580858	    -17.10459342	      1.84731358	      0.00000000	      0.97844141	     -0.00000000	     -3.29997707	      0.00000000
      7.52600000	      0.00000000	      0.00000000	      0.00000000	      0.00000000	      0.00000000	      0.00000000	      0.00000000	      0.00000000	      0.00000000	    162.23402157	    320.18292606	    -15.85480367	      1.84557529	      0.00000000	      0.97827258	     -0.00000000	     -3.62500804	      0.00000000
      7.52700000	      0.00000000	      0.00000000	      0.00000000	      0.00000000	      0.00000000	      0.00000000	      0.00000000	      0.00000000	      0.00000000	    156.85493984	    301.02096169	    -14.59210942	      1.84392601	      0.00000000	      0.97809806	     -0.00000000	     -3.95043444	      0.00000000
      7.52800000	      0.00000000	      0.00000000	      0.00000000	      0.00000000	      0.00000000	      0.00000000	      0.00000000	      0.00000000	      0.00000000	    151.35612649	    282.88083364	    -13.30360618	      1.84245478	      0.00000000	      0.97791217	     -0.00000000	     -4.27665170	      0.00000000
